<?xml version="1.0" encoding="utf-8"?>
<!-- Generator: Adobe Illustrator 21.1.0, SVG Export Plug-In . SVG Version: 6.00 Build 0)  -->
<svg version="1.1" xmlns="http://www.w3.org/2000/svg" xmlns:xlink="http://www.w3.org/1999/xlink" x="0px" y="0px"
	 viewBox="0 0 433 433" style="enable-background:new 0 0 433 433;" xml:space="preserve">
<style type="text/css">
	.st0{fill:#FFFFFF;}
</style>
<g id="Layer_3">
	<g>
		<g>
			<path d="M395.8,5h-357C20.2,5,5,20.2,5,38.8v357c0,18.6,15.2,33.8,33.8,33.8h357c18.6,0,33.8-15.2,33.8-33.8v-357
				C429.5,20.2,414.3,5,395.8,5z"/>
		</g>
	</g>
</g>
<g id="Layer_2">
	<g>
		<g>
			<path class="st0" d="M357.7,88c-1.5-3.7-4.2-7.3-4.2-11c-0.2-9-2.7-16.4-8.2-23.8c-16.6-22.3-39.4-35-65.5-39.6
				c-35.6-6.3-70.3-0.6-102.7,16.4c-27.3,14.4-51.3,32.6-68.2,59.2c-4.4,7-10.3,13-15.3,19.6c-6.2,8.2-12.3,16.5-18.2,25
				c-2.5,3.7-3.3,7.7-1,12.3c0.9,1.8,0.3,4.8-0.4,7c-1,3.3-2.9,6.3-4.2,9.6c-5.1,13.4-9.4,27.1-15.3,40.1
				c-9.2,20.4-14.8,41.6-17,63.8c-0.2,2.4,1.7,5.1,3.1,8.9c1.9-2.6,2.9-3.5,3.3-4.7c3.7-10.2,7.7-20.2,10.8-30.6
				c5.3-17.8,11-35.4,20.8-51.2c17.6-28.4,35.3-56.9,61.9-78.2c9.2-7.4,17.5-15.9,27.1-22.7c10.3-7.3,20.8-14.9,32.4-19.3
				c27.8-10.6,56.8-15.8,86.9-14.1c17.2,1,31.6,7.4,44.6,17.8c9.7,7.6,17.9,17.2,31.3,21.1C359,91.5,358.4,89.7,357.7,88z"/>
		</g>
	</g>
	<g>
		<g>
			<path class="st0" d="M387.4,193.2c-0.9-1.3-1.5-3.2-2.7-3.6c-1.2-0.5-3.4,0-4.4,1c-1.5,1.5-2.5,3.5-3.3,5.5
				c-4.1,11.1-7.7,22.3-12,33.3c-3.9,9.8-7.3,19.8-14.2,28.4c-4.7,5.9-7.7,13.1-10.9,20.1c-6.7,14.5-15,27.8-26.6,38.9
				c-4.2,4-8,8.3-12.1,12.5c-3.4,3.4-6.5,7.2-10.3,10.1c-10,7.6-20.3,14.9-30.6,22.2c-3.1,2.2-6.6,3.9-10,5.5
				c-15.1,7.2-30.7,12.7-47.3,15.1c-17.8,2.6-35.5,5.7-52.7-3c-5.6-2.8-11.5-5.5-17.6-6.7c-12.1-2.4-21.9-9.5-32.4-14.9
				c-5.7-2.9-5.5-3.5-7.1,2.8c-0.1,0.5-0.2,1.1-0.6,1.4c-3.9,3.7-1.9,7.6-0.3,11.5c1.2,2.9,2.8,5.7,3.7,8.7
				c2.2,7.5,6.8,13.2,12.9,17.9c6.2,4.7,12.3,9.4,18.6,14.1c0.9,0.7,2,1.2,3.1,1.5c14.9,4.9,30.2,7.6,46,6.7
				c5.6-0.3,11.2,0,16.7-0.9c7.8-1.3,15.6-3.3,23.3-5.3c2.3-0.6,4.4-1.9,6.4-3.1c3.8-2.3,7.1-5.8,11.1-7.2
				c18.9-6.7,36.1-16.1,52.1-28c6.5-4.9,6.5-4.8,12.7,0.4c1.2,1,3.2,1,4.8,1.4c0.2-1.8,1.2-3.8,0.6-5.3c-3.4-9-2.8-10.5,3.8-17.3
				c7.5-7.8,15.3-15.5,21.3-24.4c9-13.3,16.6-27.6,24.8-41.5c9.8-16.8,16.5-34.8,22-53.4c0.5-1.7,1.1-3.6,0.9-5.3
				c-0.9-7.6,1.9-14.4,4.5-21.2C383.7,205,385.4,199.3,387.4,193.2z"/>
		</g>
	</g>
	<g>
		<g>
			<path class="st0" d="M199.6,220.9c-21.5-10.1-43.3-19.8-64.9-29.7c-1.7-0.8-3.7-1.2-4.8-2.5c-1.4-1.6-2.8-4.1-2.5-5.9
				c0.3-1.8,2.6-3.6,4.5-4.5c1.7-0.8,3.9-0.5,5.9-0.5c12.7,0,25.3,0.2,38,0c8.4-0.2,15.9,0.6,22.3,7.4c4.7,5,13.2,4,18.2-0.7
				c5.1-4.7,6.5-12.4,2-17.6c-6.7-7.8-14.3-15-25.1-15.8c-10.8-0.8-21.6-0.2-32.4-0.2c0-0.3,0-0.5,0-0.8c-9,0-18-0.2-27,0
				c-16.8,0.5-30.4,10.9-33.6,25.5c-3.9,17.6,2.9,31.3,20.1,39.5c20.2,9.5,40.5,18.6,60.8,27.9c3.8,1.7,7.4,3.8,10.8,6.1
				c3.9,2.6,4.9,6.5,3.7,11c-1.4,5.7-5.1,8.7-12.3,8.8c-14.8,0.2-29.7,0.1-44.5,0.2c-7.7,0-14.6-1.3-20.5-7.1
				c-5.1-5-13.9-3.8-19,1.5c-5,5.2-5.2,12.6,0,18c7.4,7.7,15.8,14.3,27,14.6c20.3,0.5,40.7,1.2,60.9,0.2
				c16.7-0.8,29.7-8.6,34.7-25.9C228.3,248.6,220.2,230.5,199.6,220.9z"/>
		</g>
	</g>
	<g>
		<g>
			<path class="st0" d="M329,282.4c-0.2-6.6-4-11.2-10.8-12.4c-3.9-0.7-7.9-0.8-11.9-0.9c-4.6-0.1-9.2,0-14.2,0c0-2.4,0-4.2,0-6
				c0-31.7,0-63.3,0-95c0-13.9-4.1-17.9-17.8-18.1c-9-0.1-18-0.1-27,0c-3.6,0.1-7.4,0.2-10.9,1c-6.5,1.4-10,5.9-10.1,12.5
				c-0.1,6.5,3.1,11.3,9.5,12.9c3.8,1,7.9,1.2,11.9,1.3c5.4,0.2,10.9,0.1,16.5,0.1c0,30.6,0,60.6,0,91.3c-5.6,0-10.7-0.1-15.8,0
				c-3.5,0.1-7,0.2-10.4,0.8c-7.4,1.2-11.4,5.8-11.6,12.8c-0.1,7,3.6,11.7,11,13.3c2.6,0.6,5.3,0.8,7.9,0.9c21.7,0.1,43.3,0.1,65,0
				c3,0,6-0.3,8.9-1C325.7,294.3,329.2,289.4,329,282.4z"/>
		</g>
	</g>
	<g>
		<g>
			<path class="st0" d="M291.9,98.1c-0.3-7.6-4.3-11.6-11.9-12c-2.8-0.1-5.7,0-8.5,0c0,0,0,0,0,0c-2.7,0-5.3-0.1-8,0
				c-8.2,0.3-12.3,4.3-12.5,12.4c-0.1,4.8-0.2,9.7,0,14.5c0.3,6.9,4,10.9,10.8,11.3c6.3,0.4,12.7,0.4,19,0c7.1-0.4,10.7-4.4,11-11.7
				C292.1,107.7,292.1,102.9,291.9,98.1z"/>
		</g>
	</g>
	<path d="M72.4,171c-1.3-5.7,5.1-20.6,9.9-23.7C84.5,152.5,78.3,167.6,72.4,171z"/>
</g>
</svg>
